<?xml version="1.0" standalone="no"?>
<!DOCTYPE svg PUBLIC "-//W3C//DTD SVG 20010904//EN"
 "http://www.w3.org/TR/2001/REC-SVG-20010904/DTD/svg10.dtd">
<svg version="1.0" xmlns="http://www.w3.org/2000/svg"
 width="334.000000pt" height="400.000000pt" viewBox="0 0 334.000000 400.000000"
 preserveAspectRatio="xMidYMid meet">

<g transform="translate(0.000000,400.000000) scale(0.100000,-0.100000)"
fill="#000000" stroke="none">
<path d="M0 2000 l0 -2000 1670 0 1670 0 0 2000 0 2000 -1670 0 -1670 0 0
-2000z m1587 1914 c34 -8 78 -21 98 -30 19 -8 35 -11 35 -8 0 4 7 1 15 -6 8
-7 15 -9 15 -5 0 5 9 0 20 -10 11 -10 20 -15 20 -12 0 9 83 -38 139 -79 65
-46 161 -157 161 -184 0 -6 5 -10 10 -10 6 0 10 -6 10 -13 0 -7 9 -30 19 -50
11 -21 23 -57 26 -80 4 -23 10 -46 13 -52 3 -5 7 -16 7 -25 5 -45 19 -113 38
-179 18 -63 30 -83 71 -123 53 -52 55 -72 8 -83 -33 -7 -43 -22 -36 -53 4 -13
-4 -27 -25 -45 -17 -14 -35 -37 -40 -50 -12 -31 -72 -59 -119 -55 -34 3 -37 1
-51 -37 -8 -22 -18 -42 -21 -45 -4 -3 -21 -30 -38 -61 -31 -54 -134 -169 -152
-169 -5 0 -3 -21 5 -47 8 -26 11 -50 6 -53 -5 -3 -11 -15 -15 -27 -10 -32 -70
-63 -121 -63 -24 0 -64 9 -89 20 -38 16 -46 24 -46 46 0 19 -4 25 -15 21 -8
-4 -49 -9 -90 -13 -46 -4 -71 -10 -63 -15 9 -6 6 -8 -9 -6 -12 0 -19 5 -17 9
3 4 -7 8 -23 9 -47 0 -117 7 -138 12 -11 2 -40 8 -64 12 -99 16 -191 78 -245
163 -29 46 -82 217 -91 290 -12 113 -16 152 -20 237 -2 50 -8 101 -13 115 -12
33 -27 136 -25 179 4 79 25 179 48 227 14 28 25 56 25 62 0 7 4 12 9 12 5 0
14 14 21 30 7 17 16 30 20 30 4 0 12 11 18 25 8 16 17 23 31 20 14 -2 18 1 14
10 -5 15 43 64 63 65 6 0 17 6 23 13 6 8 37 22 68 32 32 10 67 22 79 27 12 6
30 8 40 7 10 -2 26 1 34 6 48 30 247 35 357 9z m463 -1348 c0 -8 6 -16 13 -19
6 -2 0 -4 -14 -3 -19 1 -25 5 -21 19 5 20 22 23 22 3z m90 -51 c-7 -8 -18 -15
-24 -15 -6 0 -3 7 7 14 9 7 17 19 18 27 0 11 2 11 6 1 3 -7 -1 -19 -7 -27z
m-105 -3 c-3 -3 -11 0 -18 7 -9 10 -8 11 6 5 10 -3 15 -9 12 -12z m549 -34
c-5 -8 -2 -9 10 -5 9 4 14 3 11 -2 -3 -5 -1 -12 5 -16 5 -3 10 -14 9 -23 0
-11 -2 -12 -6 -4 -2 6 -10 9 -15 6 -7 -4 -8 -2 -4 4 9 16 -7 15 -22 0 -8 -8
-12 -9 -12 -1 0 6 6 14 13 17 9 5 9 7 -2 12 -11 5 -11 8 0 15 19 12 22 11 13
-3z m-74 -18 c0 -5 -5 -10 -11 -10 -5 0 -7 5 -4 10 3 6 8 10 11 10 2 0 4 -4 4
-10z m-30 -30 c8 -5 11 -10 5 -10 -5 0 -17 5 -25 10 -8 5 -10 10 -5 10 6 0 17
-5 25 -10z m-506 -42 c-3 -4 -9 -8 -15 -8 -5 0 -9 4 -9 8 0 5 7 9 15 9 8 0 12
-4 9 -9z m486 2 c0 -5 -2 -10 -4 -10 -3 0 -8 5 -11 10 -3 6 -1 10 4 10 6 0 11
-4 11 -10z m226 -38 c14 -23 21 -42 15 -42 -5 0 -12 4 -15 9 -3 5 -15 7 -25 4
-22 -6 -37 12 -20 23 8 4 9 3 5 -4 -4 -7 -1 -12 8 -12 23 0 29 18 9 28 -9 5
-18 17 -19 26 -4 28 15 13 42 -32z m-446 17 c0 -6 -4 -7 -10 -4 -5 3 -10 11
-10 16 0 6 5 7 10 4 6 -3 10 -11 10 -16z m305 1 c4 -7 12 -7 25 0 25 13 30 13
30 -5 0 -8 -9 -15 -21 -15 -11 0 -17 -4 -14 -10 3 -5 2 -10 -4 -10 -5 0 -18
-3 -28 -6 -16 -5 -16 -4 2 11 20 16 20 16 1 31 -11 8 -15 14 -9 14 7 0 15 -5
18 -10z m-82 -26 c-3 -8 -14 -12 -26 -10 -12 3 -28 5 -34 5 -19 1 -15 19 5 23
31 7 61 -3 55 -18z m43 -11 c-10 -10 -19 5 -10 18 6 11 8 11 12 0 2 -7 1 -15
-2 -18z m-581 -3 c-3 -5 -12 -10 -18 -10 -7 0 -6 4 3 10 19 12 23 12 15 0z
m55 -5 c0 -17 -27 -32 -37 -21 -4 3 2 13 13 21 24 18 24 18 24 0z m350 5 c-8
-5 -19 -10 -25 -10 -5 0 -3 5 5 10 8 5 20 10 25 10 6 0 3 -5 -5 -10z m55 -11
c-4 -5 -13 -9 -21 -9 -12 0 -12 2 -2 14 14 15 32 11 23 -5z m222 -5 c-3 -3
-12 -4 -19 -1 -8 3 -5 6 6 6 11 1 17 -2 13 -5z m-147 -20 c0 -7 -27 -34 -35
-34 -3 0 -1 9 5 20 10 18 30 28 30 14z m28 -29 c-3 -3 -9 2 -12 12 -6 14 -5
15 5 6 7 -7 10 -15 7 -18z m105 -8 c-10 -48 -12 -50 -28 -37 -8 7 -15 24 -14
39 0 14 3 20 6 14 2 -7 9 -13 15 -13 6 0 8 7 5 14 -4 10 -1 13 7 10 8 -3 12
-14 9 -27z m-189 7 c19 -18 19 -21 7 -29 -10 -6 -41 21 -41 36 0 14 17 11 34
-7z m136 -9 c0 -17 -2 -18 -25 -9 -13 5 -14 8 -3 15 19 13 28 11 28 -6z
m-1190 -10 c-7 -9 -15 -13 -19 -10 -3 3 1 10 9 15 21 14 24 12 10 -5z m805
-11 l28 -26 -29 4 c-21 2 -30 9 -32 26 -4 28 -1 28 33 -4z m85 11 c0 -2 -9 -3
-19 -2 -11 0 -18 5 -15 9 4 6 34 0 34 -7z m114 -12 c8 3 17 0 20 -8 2 -7 -2
-16 -10 -19 -9 -3 -12 -1 -9 4 7 11 3 12 -19 4 -8 -3 -12 -12 -9 -20 3 -8 1
-14 -5 -14 -14 0 -22 24 -15 49 4 17 8 19 19 10 8 -6 20 -9 28 -6z m126 9 c0
-5 -7 -9 -15 -9 -8 0 -12 4 -9 9 3 4 9 8 15 8 5 0 9 -4 9 -8z m-370 -7 c0 -2
-10 -9 -22 -15 -22 -11 -22 -10 -4 4 21 17 26 19 26 11z m585 -44 c-4 -3 -10
1 -14 8 -5 7 -13 11 -19 7 -6 -4 -8 2 -5 14 5 20 6 20 24 -1 11 -12 17 -25 14
-28z m-435 14 c0 -8 -2 -15 -4 -15 -2 0 -6 7 -10 15 -3 8 -1 15 4 15 6 0 10
-7 10 -15z m180 5 c0 -5 -5 -10 -11 -10 -7 0 -18 -8 -26 -17 -8 -10 -12 -13
-9 -6 4 6 0 13 -6 16 -8 3 -3 9 12 15 32 14 40 14 40 2z m310 -41 c0 -17 -9
-9 -24 24 l-16 32 20 -24 c11 -13 20 -27 20 -32z m-526 26 c4 -11 -2 -15 -25
-15 -18 0 -28 4 -24 10 4 6 11 8 16 5 5 -4 9 -1 9 4 0 16 17 13 24 -4z m289 8
c-7 -2 -19 -2 -25 0 -7 3 -2 5 12 5 14 0 19 -2 13 -5z m37 -9 c0 -8 -5 -12
-10 -9 -6 4 -8 11 -5 16 9 14 15 11 15 -7z m-75 -4 c3 -5 -1 -10 -9 -10 -9 0
-16 5 -16 10 0 6 4 10 9 10 6 0 13 -4 16 -10z m103 -15 c-3 -3 -9 2 -12 12 -6
14 -5 15 5 6 7 -7 10 -15 7 -18z m-1424 -9 c-3 -9 -10 -13 -15 -10 -5 3 -3 11
4 19 15 16 19 13 11 -9z m1296 -6 c10 -19 10 -20 -9 -8 -22 13 -28 28 -11 28
5 0 14 -9 20 -20z m-305 -10 c-3 -5 -11 -10 -16 -10 -6 0 -7 5 -4 10 3 6 11
10 16 10 6 0 7 -4 4 -10z m63 -19 c20 -28 20 -29 2 -24 -11 3 -20 14 -20 24 0
13 -5 17 -17 12 -11 -4 -14 -3 -9 5 11 18 20 15 44 -17z m-1074 -7 c3 -8 2
-12 -4 -9 -6 3 -10 10 -10 16 0 14 7 11 14 -7z m1466 12 c0 -3 -4 -8 -10 -11
-5 -3 -10 -1 -10 4 0 6 5 11 10 11 6 0 10 -2 10 -4z m110 -16 c0 -5 -2 -10 -4
-10 -3 0 -8 5 -11 10 -3 6 -1 10 4 10 6 0 11 -4 11 -10z m-1992 -27 c8 -11 93
-53 109 -53 5 0 18 -9 29 -21 10 -11 26 -18 35 -16 13 3 16 0 12 -11 -5 -11
-2 -14 10 -9 19 7 23 -8 5 -19 -6 -4 -18 2 -26 12 -14 19 -15 18 -8 -1 4 -11
12 -44 16 -73 5 -29 12 -57 15 -63 4 -5 4 -21 1 -35 -5 -19 -13 -24 -37 -24
-41 0 -119 20 -120 31 -1 5 -3 14 -4 19 -1 6 -3 14 -4 20 0 5 -40 9 -93 9
-102 -1 -146 8 -162 33 -14 22 4 41 54 58 61 20 49 33 -29 28 -59 -3 -76 -8
-115 -36 -56 -41 -61 -24 -14 48 34 53 99 91 193 114 32 8 126 0 133 -11z
m1442 -19 c0 -8 -4 -14 -9 -14 -12 0 -32 26 -25 33 10 9 34 -4 34 -19z m220 6
c-6 -11 -13 -20 -16 -20 -2 0 0 9 6 20 6 11 13 20 16 20 2 0 0 -9 -6 -20z
m-350 -12 c11 -4 7 -9 -12 -18 -16 -7 -28 -19 -28 -25 0 -7 -6 -18 -14 -24
-12 -10 -13 -8 -9 10 4 15 3 20 -5 15 -8 -5 -12 1 -12 16 0 19 2 20 11 8 8
-11 12 -12 16 -2 2 6 9 10 14 6 13 -8 11 10 -3 25 -11 11 -9 12 7 4 11 -6 27
-13 35 -15z m-1097 -28 c-3 -11 0 -20 6 -20 6 0 11 -5 11 -12 0 -6 -11 -1 -25
12 -24 22 -24 25 -8 31 10 4 19 8 20 8 0 1 -1 -8 -4 -19z m81 5 c-4 -8 -11
-12 -16 -9 -6 4 -5 10 3 15 19 12 19 11 13 -6z m1128 -17 c-7 -7 -12 -8 -12
-2 0 6 3 14 7 17 3 4 9 5 12 2 2 -3 -1 -11 -7 -17z m253 11 c11 -16 1 -19 -13
-3 -7 8 -8 14 -3 14 5 0 13 -5 16 -11z m-1515 -20 c0 -6 -4 -7 -10 -4 -5 3
-10 11 -10 16 0 6 5 7 10 4 6 -3 10 -11 10 -16z m370 -33 c0 -3 -4 -8 -10 -11
-5 -3 -10 -1 -10 4 0 6 5 11 10 11 6 0 10 -2 10 -4z m356 -38 c-1 -13 -11 -25
-21 -26 -17 -4 -15 5 8 36 14 18 17 15 13 -10z m-630 -7 c-6 -9 -46 -22 -46
-15 0 3 10 9 23 14 29 11 29 11 23 1z m474 -1 c0 -5 -2 -10 -4 -10 -3 0 -8 5
-11 10 -3 6 -1 10 4 10 6 0 11 -4 11 -10z m-474 -42 c4 -6 3 -8 -4 -4 -6 3
-18 -1 -26 -10 -15 -14 -17 -14 -15 2 0 4 -5 11 -13 15 -9 6 -2 9 19 9 17 0
35 -5 39 -12z m354 -2 c0 -3 -4 -8 -10 -11 -5 -3 -10 -1 -10 4 0 6 5 11 10 11
6 0 10 -2 10 -4z m1055 -16 c3 -5 1 -10 -4 -10 -6 0 -11 5 -11 10 0 6 2 10 4
10 3 0 8 -4 11 -10z m95 -32 c0 -6 -6 -5 -15 2 -8 7 -15 14 -15 16 0 2 7 1 15
-2 8 -4 15 -11 15 -16z m-985 -18 c3 -5 1 -10 -4 -10 -6 0 -11 5 -11 10 0 6 2
10 4 10 3 0 8 -4 11 -10z m851 -10 c8 0 14 -4 14 -9 0 -20 -36 -7 -37 13 -1
12 1 15 4 9 3 -7 11 -13 19 -13z m64 0 c0 -5 -7 -7 -15 -4 -8 4 -15 8 -15 10
0 2 7 4 15 4 8 0 15 -4 15 -10z m-1050 -15 c0 -8 -2 -15 -4 -15 -2 0 -6 7 -10
15 -3 8 -1 15 4 15 6 0 10 -7 10 -15z m1100 11 c0 -15 -21 -56 -29 -56 -15 0
-22 32 -10 46 11 13 39 20 39 10z m170 -6 c-18 -12 -30 -13 -30 -2 0 4 10 9
22 9 18 2 20 0 8 -7z m-140 -20 c0 -5 -5 -10 -11 -10 -5 0 -7 5 -4 10 3 6 8
10 11 10 2 0 4 -4 4 -10z m-1520 -20 c0 -5 -4 -10 -10 -10 -5 0 -10 5 -10 10
0 6 5 10 10 10 6 0 10 -4 10 -10z m1429 -20 c-11 -30 -23 -35 -53 -24 -25 9
-19 24 9 24 26 0 34 15 13 23 -7 3 -1 6 14 6 26 1 26 0 17 -29z m241 26 c0 -3
-4 -8 -10 -11 -5 -3 -10 -1 -10 4 0 6 5 11 10 11 6 0 10 -2 10 -4z m-1377 -18
c-6 -11 -43 -10 -43 1 0 5 11 8 24 7 13 0 22 -4 19 -8z m367 -3 c0 -13 -4 -14
-20 -5 -11 6 -20 13 -20 15 0 3 9 5 20 5 11 0 20 -7 20 -15z m850 -2 c0 -7 -5
-13 -11 -13 -5 0 -7 -4 -4 -10 3 -5 1 -10 -4 -10 -6 0 -11 11 -11 23 0 14 6
24 15 24 8 0 15 -6 15 -14z m-1407 0 c-7 -2 -19 -2 -25 0 -7 3 -2 5 12 5 14 0
19 -2 13 -5z m1357 -29 c0 -2 -7 -4 -15 -4 -8 0 -15 4 -15 10 0 5 7 7 15 4 8
-4 15 -8 15 -10z m-830 -26 c0 -4 -7 -5 -17 -1 -13 5 -15 2 -10 -17 4 -17 3
-20 -5 -12 -6 6 -12 22 -14 35 -2 22 0 23 22 13 13 -6 24 -14 24 -18z m550 -9
c0 -11 -4 -17 -10 -14 -5 3 -10 13 -10 21 0 8 5 14 10 14 6 0 10 -9 10 -21z
m120 -5 c0 -2 -7 -4 -15 -4 -8 0 -15 4 -15 10 0 5 7 7 15 4 8 -4 15 -8 15 -10z
m197 -46 c-3 -8 -6 -5 -6 6 -1 11 2 17 5 13 3 -3 4 -12 1 -19z m249 -33 c1 -8
-2 -15 -6 -15 -5 0 -8 9 -7 20 1 21 10 18 13 -5z m-231 -27 c0 -8 6 -23 14
-32 12 -14 12 -16 -3 -10 -9 3 -17 10 -17 15 -3 20 -5 25 -13 38 -6 9 -5 12 5
9 8 -3 14 -12 14 -20z m-236 -20 c-9 -16 -14 -19 -17 -9 -2 7 2 17 9 22 20 13
21 11 8 -13z m208 7 c0 -8 -4 -15 -9 -15 -4 0 -8 7 -8 15 0 8 4 15 8 15 5 0 9
-7 9 -15z m283 -29 c0 -3 -4 -8 -10 -11 -5 -3 -10 -1 -10 4 0 6 5 11 10 11 6
0 10 -2 10 -4z m-950 -37 c0 -10 -4 -19 -10 -19 -5 0 -10 7 -10 15 0 8 -6 15
-12 15 -9 0 -8 3 2 9 18 12 30 5 30 -20z m445 11 c-3 -5 -14 -10 -23 -9 -14 0
-13 2 3 9 27 11 27 11 20 0z m180 -19 c1 -11 -13 -26 -37 -39 -28 -17 -36 -19
-32 -7 4 8 10 15 15 15 5 0 9 5 9 12 0 15 31 50 38 43 3 -3 6 -14 7 -24z m181
13 c18 6 18 5 0 -8 -11 -9 -16 -22 -13 -31 5 -10 0 -15 -13 -15 -26 0 -32 14
-18 45 7 17 14 22 19 14 4 -7 15 -9 25 -5z m-411 -24 c3 -5 1 -10 -4 -10 -6 0
-11 5 -11 10 0 6 2 10 4 10 3 0 8 -4 11 -10z m349 -39 c-2 -2 -10 1 -18 8 -11
9 -15 8 -20 -5 -5 -12 -10 -14 -17 -7 -8 8 -8 17 0 32 l12 21 23 -22 c13 -13
22 -25 20 -27z m-64 31 c0 -4 -9 -8 -20 -9 -11 -1 -18 2 -15 8 7 11 35 12 35
1z m-825 -21 c3 -5 1 -12 -4 -15 -5 -3 -11 1 -15 9 -6 16 9 21 19 6z m115 5
c0 -3 -4 -8 -10 -11 -5 -3 -10 -1 -10 4 0 6 5 11 10 11 6 0 10 -2 10 -4z
m-155 -956 c3 -5 1 -10 -4 -10 -6 0 -11 5 -11 10 0 6 2 10 4 10 3 0 8 -4 11
-10z m916 -42 c10 -50 24 -158 21 -167 -8 -25 -115 -64 -178 -65 -69 -1 -121
23 -106 50 8 14 3 58 -13 125 -7 26 -6 26 67 33 119 11 162 17 167 22 5 4 41
6 42 2z m-577 -63 c7 -17 16 -44 19 -62 6 -28 3 -34 -26 -52 -84 -52 -205 -67
-248 -32 -21 17 -22 21 -10 44 13 24 12 44 -4 108 l-6 24 132 0 131 -1 12 -29z
m539 -262 c-7 -2 -19 -2 -25 0 -7 3 -2 5 12 5 14 0 19 -2 13 -5z"/>
<path d="M1230 3882 c0 -7 -8 -12 -18 -12 -9 0 -23 -9 -30 -20 -16 -27 -4 -25
33 4 17 13 27 28 23 32 -5 4 -8 2 -8 -4z"/>
<path d="M1265 3880 c-3 -6 1 -7 9 -4 18 7 21 14 7 14 -6 0 -13 -4 -16 -10z"/>
<path d="M1116 3852 c-3 -5 1 -9 9 -9 8 0 15 4 15 9 0 4 -4 8 -9 8 -6 0 -12
-4 -15 -8z"/>
<path d="M1660 3842 c0 -5 7 -15 15 -22 8 -7 15 -8 15 -2 0 5 -7 15 -15 22 -8
7 -15 8 -15 2z"/>
<path d="M1127 3798 c3 -18 10 -36 15 -39 5 -3 8 -10 7 -15 -1 -5 -1 -15 0
-23 2 -26 30 22 31 52 0 25 -2 27 -21 16 -12 -6 -19 -7 -15 -1 7 12 -3 42 -15
42 -5 0 -6 -15 -2 -32z"/>
<path d="M1190 3745 c0 -16 16 -20 24 -6 3 5 -1 11 -9 15 -9 3 -15 0 -15 -9z"/>
<path d="M1229 3738 c-4 -15 -6 -38 -3 -38 2 0 8 9 14 20 7 14 7 20 0 20 -5 0
-10 -1 -11 -2z"/>
<path d="M1270 3703 c0 -4 5 -15 10 -23 8 -13 10 -13 10 2 0 9 -4 20 -10 23
-5 3 -10 3 -10 -2z"/>
<path d="M1186 3676 c3 -9 2 -16 -3 -16 -5 0 -10 -7 -10 -15 0 -8 7 -15 14
-15 10 0 12 -7 8 -22 -5 -18 -4 -20 4 -8 9 12 12 13 20 1 6 -9 11 -10 15 -2 4
6 16 11 27 11 10 0 19 5 19 12 0 6 -3 9 -6 5 -4 -3 -18 0 -33 7 -14 7 -32 11
-40 8 -9 -3 -11 1 -7 16 4 11 2 23 -3 27 -7 3 -8 0 -5 -9z"/>
<path d="M1751 3598 c-1 -11 -9 -18 -21 -18 -11 0 -20 -6 -20 -12 0 -9 -4 -8
-10 2 -11 17 -13 1 -4 -24 5 -14 11 -12 36 9 32 27 50 27 28 0 -8 -9 -8 -15
-2 -15 6 0 14 5 18 11 5 8 8 8 14 0 3 -7 14 -9 24 -5 16 6 16 8 0 25 -9 11
-25 19 -35 19 -9 0 -20 6 -22 13 -3 7 -6 5 -6 -5z"/>
<path d="M890 3589 c0 -5 5 -7 10 -4 6 3 10 8 10 11 0 2 -4 4 -10 4 -5 0 -10
-5 -10 -11z"/>
<path d="M1361 3546 c-1 -14 -6 -17 -22 -13 -22 6 -49 -1 -49 -12 0 -4 14 -15
30 -24 17 -10 30 -13 30 -8 0 6 9 11 19 11 10 0 21 7 25 15 3 9 0 15 -9 15 -7
0 -16 8 -18 18 -4 15 -5 15 -6 -2z"/>
<path d="M1247 3503 c-3 -5 -1 -17 4 -28 6 -17 7 -16 6 8 -1 28 -3 32 -10 20z"/>
<path d="M925 3489 c-4 -6 -5 -12 -2 -15 2 -3 7 2 10 11 7 17 1 20 -8 4z"/>
<path d="M1720 3470 c0 -5 5 -10 11 -10 5 0 7 5 4 10 -3 6 -8 10 -11 10 -2 0
-4 -4 -4 -10z"/>
<path d="M880 3459 c0 -5 5 -7 10 -4 6 3 10 8 10 11 0 2 -4 4 -10 4 -5 0 -10
-5 -10 -11z"/>
<path d="M1751 3454 c0 -11 3 -14 6 -6 3 7 2 16 -1 19 -3 4 -6 -2 -5 -13z"/>
<path d="M1243 3425 c-3 -9 -3 -18 -1 -21 3 -3 8 4 11 16 6 23 -1 27 -10 5z"/>
<path d="M1881 3397 c-15 -15 -14 -27 3 -21 8 3 17 1 21 -5 9 -15 35 -14 35 2
0 18 -46 37 -59 24z"/>
<path d="M850 3379 c-7 -11 -10 -23 -7 -25 2 -2 9 7 15 21 14 30 7 33 -8 4z"/>
<path d="M1745 3390 c-3 -5 -1 -10 4 -10 6 0 11 5 11 10 0 6 -2 10 -4 10 -3 0
-8 -4 -11 -10z"/>
<path d="M1906 3337 c3 -10 9 -15 12 -12 3 3 0 11 -7 18 -10 9 -11 8 -5 -6z"/>
<path d="M1940 3326 c0 -9 5 -16 10 -16 6 0 10 4 10 9 0 6 -4 13 -10 16 -5 3
-10 -1 -10 -9z"/>
<path d="M1938 3282 c4 -10 7 -12 10 -4 2 7 9 9 15 5 7 -3 8 -2 4 2 -14 16
-36 14 -29 -3z"/>
<path d="M1956 3235 c4 -8 8 -15 10 -15 2 0 4 7 4 15 0 8 -4 15 -10 15 -5 0
-7 -7 -4 -15z"/>
<path d="M1488 2999 c-10 -5 -18 -19 -18 -31 0 -18 4 -20 31 -14 17 3 51 6 75
6 37 0 44 3 44 19 0 10 -7 22 -16 25 -25 9 -97 6 -116 -5z"/>
<path d="M1159 2956 c-2 -2 -20 -7 -40 -10 -46 -7 -89 -23 -89 -33 1 -27 17
-30 79 -18 75 16 92 28 70 50 -8 9 -17 14 -20 11z"/>
<path d="M1280 2720 c-9 -18 -8 -20 14 -20 33 0 42 16 17 30 -16 8 -22 6 -31
-10z"/>
<path d="M1475 2540 c-35 -39 -144 -45 -166 -8 -7 11 -10 11 -21 0 -11 -11 -9
-17 10 -32 33 -27 88 -35 131 -20 40 14 93 59 85 72 -8 13 -19 10 -39 -12z"/>
</g>
</svg>
